<svg fill="none" height="300" viewBox="0 0 300 300" width="300" xmlns="http://www.w3.org/2000/svg">
  <path d="m92.0361 189.7c0-25.902 0-122.5191 0-138.9117 0-20.4908-18.0958-37.7883-38.8527-37.7883-20.757 0-40.1833 18.8941-40.1833 35.9255 0 13.625 0 52.8685-.0001 95.5355 0 38.32 18.4787 45.239 49.348 45.239" stroke="#29a9e1" stroke-width="25"/>
  <path d="m92.042 189.592v43.643c0 18.308 13.838 36.457 44.973 36.457h98.197c20.491 0 37.788-18.095 37.788-38.852s-18.894-41.248-35.925-41.248c-11.649 0-69.531 0-115.256 0" stroke="#29a9e1" stroke-width="25"/>
</svg>